<svg xmlns="http://www.w3.org/2000/svg" xmlns:xlink="http://www.w3.org/1999/xlink" width="500" zoomAndPan="magnify" viewBox="0 0 375 374.999991" height="500" preserveAspectRatio="xMidYMid meet" version="1.0"><path fill="#000000" d="M 186.042969 82.972656 C 128.382812 82.972656 81.480469 129.875 81.480469 187.535156 C 81.480469 245.195312 128.382812 292.097656 186.042969 292.097656 C 243.699219 292.097656 290.605469 245.195312 290.605469 187.535156 C 290.605469 129.875 243.699219 82.972656 186.042969 82.972656 Z M 186.042969 277.160156 C 136.621094 277.160156 96.417969 236.957031 96.417969 187.535156 C 96.417969 138.113281 136.621094 97.910156 186.042969 97.910156 C 235.460938 97.910156 275.667969 138.113281 275.667969 187.535156 C 275.667969 236.957031 235.460938 277.160156 186.042969 277.160156 Z M 186.042969 277.160156 " fill-opacity="1" fill-rule="nonzero"/><path fill="#000000" d="M 225.574219 152.378906 L 171.105469 206.847656 L 146.5 182.253906 C 143.582031 179.335938 138.859375 179.335938 135.941406 182.253906 C 133.019531 185.175781 133.019531 189.902344 135.941406 192.816406 L 165.824219 222.691406 C 167.285156 224.148438 169.199219 224.878906 171.105469 224.878906 C 173.007812 224.878906 174.925781 224.148438 176.382812 222.691406 L 236.132812 162.941406 C 239.054688 160.019531 239.054688 155.300781 236.132812 152.378906 C 233.214844 149.460938 228.492188 149.460938 225.574219 152.378906 Z M 225.574219 152.378906 " fill-opacity="1" fill-rule="nonzero"/><path fill="#000000" d="M 334.445312 163.238281 C 331.367188 160.960938 330.410156 156.457031 332.449219 153.214844 C 339.746094 141.609375 350.347656 117.230469 313.855469 108.292969 C 310.132812 107.378906 307.378906 103.535156 308.171875 99.800781 C 311.671875 83.414062 306.765625 59.617188 273.785156 65.414062 C 270.027344 66.070312 266.03125 63.488281 265.292969 59.730469 C 262.820312 47.167969 252.167969 21.722656 220.375 41.125 C 217.105469 43.117188 211.890625 42.035156 210.351562 39.125 C 205.414062 29.792969 183.792969 8.285156 161.730469 39.125 C 159.503906 42.238281 154.386719 43.035156 151.707031 41.117188 C 137.234375 30.75 113.847656 28.160156 106.78125 59.714844 C 105.96875 63.335938 102.113281 66.117188 98.285156 65.390625 C 85.632812 62.984375 57.863281 63.777344 63.917969 99.777344 C 64.554688 103.546875 62.023438 107.707031 58.242188 108.277344 C 43.507812 110.480469 20.789062 122.316406 39.632812 153.195312 C 41.625 156.457031 41.050781 161.492188 37.636719 163.214844 C 24.558594 169.828125 9.585938 193.339844 37.636719 211.859375 C 40.828125 213.964844 41.625 218.5 39.632812 221.765625 C 20.789062 252.640625 43.507812 264.46875 58.242188 266.679688 C 62.03125 267.25 64.554688 271.410156 63.917969 275.179688 C 57.863281 311.179688 85.632812 311.972656 98.296875 309.558594 C 102.128906 308.828125 105.984375 311.613281 106.796875 315.234375 C 113.863281 346.796875 137.246094 344.199219 151.722656 333.832031 C 154.402344 331.914062 159.519531 332.710938 161.746094 335.828125 C 183.808594 366.671875 205.429688 345.164062 210.367188 335.828125 C 211.90625 332.921875 217.117188 331.832031 220.390625 333.824219 C 252.183594 353.230469 262.835938 327.78125 265.308594 315.21875 C 266.046875 311.464844 270.042969 308.878906 273.800781 309.535156 C 306.78125 315.332031 311.679688 291.539062 308.183594 275.152344 C 307.386719 271.417969 310.148438 267.570312 313.867188 266.660156 C 350.367188 257.71875 339.769531 233.339844 332.464844 221.734375 C 330.425781 218.492188 331.308594 213.890625 334.445312 211.726562 C 344.199219 204.980469 365.292969 186.0625 334.445312 163.238281 Z M 323.78125 237.65625 C 326.320312 241.742188 324.75 247.359375 318.96875 249.265625 C 308.378906 252.757812 288.863281 255.636719 294.070312 286.546875 C 295.0625 292.425781 291.917969 295.945312 285.179688 295.429688 C 274.933594 294.644531 253.835938 290.5 247.914062 320.335938 C 246.738281 326.230469 240.964844 327.507812 236.304688 325.152344 C 216.199219 315.003906 208.15625 313.703125 192.335938 333.898438 C 189.3125 337.761719 183.007812 337.597656 179.765625 333.898438 C 171.269531 324.214844 161.640625 309.320312 135.792969 325.160156 C 131.296875 327.917969 126.171875 325.789062 124.183594 320.351562 C 119.023438 306.191406 117.5 291.097656 86.910156 295.449219 C 82.1875 296.121094 77.183594 292.925781 78.027344 286.570312 C 79.632812 274.410156 81.480469 254.886719 53.113281 249.285156 C 48.734375 248.421875 45.316406 242.578125 48.300781 237.679688 C 59.632812 219.148438 58.0625 207.558594 39.390625 193.628906 C 37.285156 192.0625 33.859375 185.316406 39.554688 181.238281 C 57.742188 168.226562 59.632812 155.808594 48.300781 137.269531 C 45.308594 132.371094 48.734375 126.523438 53.113281 125.664062 C 81.480469 120.0625 79.632812 100.539062 78.027344 88.378906 C 77.183594 82.023438 82.195312 78.828125 86.910156 79.5 C 117.5 83.847656 119.023438 68.757812 124.183594 54.597656 C 126.164062 49.152344 131.296875 47.03125 135.792969 49.789062 C 161.648438 65.628906 171.277344 50.738281 179.765625 41.050781 C 183.007812 37.351562 189.304688 37.1875 192.335938 41.050781 C 208.15625 61.246094 216.199219 59.945312 236.304688 49.796875 C 240.964844 47.445312 246.738281 48.71875 247.914062 54.613281 C 253.835938 84.453125 274.933594 80.304688 285.179688 79.523438 C 291.925781 79.007812 295.0625 82.523438 294.070312 88.402344 C 288.863281 119.324219 308.378906 122.191406 318.96875 125.6875 C 324.75 127.589844 326.320312 133.214844 323.78125 137.292969 C 307.167969 163.972656 324.722656 174.578125 332.527344 181.269531 C 335.574219 183.882812 337.328125 190.058594 333.226562 193.257812 C 323.898438 199.707031 307.167969 210.980469 323.78125 237.65625 Z M 323.78125 237.65625 " fill-opacity="1" fill-rule="nonzero"/></svg>