<svg data-v-423bf9ae="" xmlns="http://www.w3.org/2000/svg" viewBox="0 0 514.8629502096888 163" class="iconAbove"><!----><!----><!----><g data-v-423bf9ae="" id="f415c5cd-e13e-4944-89a6-41ba6ebbcb81" fill="white" transform="matrix(4.698511969396391,0,0,4.698511969396391,-4.839460699089443,89.37431150280534)"><path d="M2.84 12.67L1.03 12.67L1.03 2.90L5.40 2.90L5.40 2.90Q8.39 2.90 8.39 5.65L8.39 5.65L8.39 5.65Q8.39 8.64 4.30 9.27L4.30 9.27L4.04 7.66L4.04 7.66Q6.50 7.21 6.50 5.71L6.50 5.71L6.50 5.71Q6.50 4.49 5.28 4.49L5.28 4.49L2.84 4.49L2.84 12.67ZM11.23 12.67L9.42 12.67L9.42 2.90L11.23 2.90L11.23 6.41L11.23 6.41Q12.08 5.50 13.40 5.50L13.40 5.50L13.40 5.50Q15.95 5.50 15.95 8.15L15.95 8.15L15.95 12.67L14.14 12.67L14.14 8.15L14.14 8.15Q14.14 6.96 12.95 6.96L12.95 6.96L12.95 6.96Q12.07 6.96 11.23 7.66L11.23 7.66L11.23 12.67ZM19.13 9.06L19.13 9.06Q19.13 11.31 20.87 11.31L20.87 11.31L20.87 11.31Q22.61 11.31 22.61 9.06L22.61 9.06L22.61 9.06Q22.61 6.86 20.87 6.86L20.87 6.86L20.87 6.86Q19.13 6.86 19.13 9.06L19.13 9.06ZM17.32 9.08L17.32 9.08L17.32 9.08Q17.32 5.48 20.87 5.48L20.87 5.48L20.87 5.48Q24.42 5.48 24.42 9.08L24.42 9.08L24.42 9.08Q24.42 12.69 20.87 12.69L20.87 12.69L20.87 12.69Q17.33 12.69 17.32 9.08ZM25.69 10.74L25.69 4.33L27.03 4.33L27.30 5.50L29.11 5.50L29.11 6.93L27.50 6.93L27.50 10.23L27.50 10.23Q27.50 11.24 28.37 11.24L28.37 11.24L29.11 11.24L29.11 12.67L27.49 12.67L27.49 12.67Q25.69 12.67 25.69 10.74L25.69 10.74ZM31.81 9.06L31.81 9.06Q31.81 11.31 33.55 11.31L33.55 11.31L33.55 11.31Q35.29 11.31 35.29 9.06L35.29 9.06L35.29 9.06Q35.29 6.86 33.55 6.86L33.55 6.86L33.55 6.86Q31.81 6.86 31.81 9.06L31.81 9.06ZM30.00 9.08L30.00 9.08L30.00 9.08Q30.00 5.48 33.55 5.48L33.55 5.48L33.55 5.48Q37.11 5.48 37.11 9.08L37.11 9.08L37.11 9.08Q37.11 12.69 33.55 12.69L33.55 12.69L33.55 12.69Q30.01 12.69 30.00 9.08ZM38.47 12.33L38.47 12.33L38.47 10.83L38.47 10.83Q39.67 11.31 41.23 11.31L41.23 11.31L41.23 11.31Q42.40 11.31 42.40 10.55L42.40 10.55L42.40 10.55Q42.40 9.84 41.62 9.84L41.62 9.84L40.32 9.84L40.32 9.84Q38.13 9.84 38.13 7.68L38.13 7.68L38.13 7.68Q38.13 5.43 41.32 5.43L41.32 5.43L41.32 5.43Q42.68 5.43 43.87 5.84L43.87 5.84L43.87 7.34L43.87 7.34Q42.68 6.86 41.28 6.86L41.28 6.86L41.28 6.86Q39.81 6.86 39.81 7.62L39.81 7.62L39.81 7.62Q39.81 8.33 40.66 8.33L40.66 8.33L41.82 8.33L41.82 8.33Q44.21 8.33 44.21 10.49L44.21 10.49L44.21 10.49Q44.21 12.74 41.17 12.74L41.17 12.74L41.17 12.74Q39.67 12.74 38.47 12.33ZM45.38 10.74L45.38 4.33L46.72 4.33L46.99 5.50L48.79 5.50L48.79 6.93L47.19 6.93L47.19 10.23L47.19 10.23Q47.19 11.24 48.06 11.24L48.06 11.24L48.79 11.24L48.79 12.67L47.18 12.67L47.18 12.67Q45.38 12.67 45.38 10.74L45.38 10.74ZM54.67 5.50L56.49 5.50L56.49 12.67L55.07 12.67L54.85 11.76L54.85 11.76Q53.61 12.67 52.23 12.67L52.23 12.67L52.23 12.67Q50.03 12.67 50.03 10.07L50.03 10.07L50.03 5.50L51.84 5.50L51.84 10.02L51.84 10.02Q51.84 11.21 52.88 11.21L52.88 11.21L52.88 11.21Q53.76 11.21 54.67 10.51L54.67 10.51L54.67 5.50ZM62.74 10.94L62.74 7.37L62.74 7.37Q62.18 7 61.33 7L61.33 7L61.33 7Q59.64 7 59.64 8.89L59.64 8.89L59.64 8.89Q59.64 11.14 61.40 11.14L61.40 11.14L61.40 11.14Q62.11 11.14 62.74 10.94L62.74 10.94ZM64.55 2.90L64.55 12.24L64.55 12.24Q62.90 12.67 61.33 12.67L61.33 12.67L61.33 12.67Q57.85 12.67 57.85 8.94L57.85 8.94L57.85 8.94Q57.85 5.50 61.26 5.50L61.26 5.50L61.26 5.50Q61.98 5.50 62.74 5.84L62.74 5.84L62.74 2.90L64.55 2.90ZM66.26 2.90L68.07 2.90L68.07 4.33L66.26 4.33L66.26 2.90ZM66.26 5.50L68.07 5.50L68.07 12.67L66.26 12.67L66.26 5.50ZM71.25 9.06L71.25 9.06Q71.25 11.31 72.99 11.31L72.99 11.31L72.99 11.31Q74.74 11.31 74.74 9.06L74.74 9.06L74.74 9.06Q74.74 6.86 72.99 6.86L72.99 6.86L72.99 6.86Q71.25 6.86 71.25 9.06L71.25 9.06ZM69.44 9.08L69.44 9.08L69.44 9.08Q69.44 5.48 72.99 5.48L72.99 5.48L72.99 5.48Q76.55 5.48 76.55 9.08L76.55 9.08L76.55 9.08Q76.55 12.69 72.99 12.69L72.99 12.69L72.99 12.69Q69.45 12.69 69.44 9.08ZM85.39 4.76L82.17 12.67L80.31 12.67L84.46 2.90L86.41 2.90L90.64 12.67L88.70 12.67L87.58 10.01L84.33 10.01L84.96 8.44L86.93 8.44L85.39 4.76ZM93.48 12.67L91.67 12.67L91.67 5.50L93.07 5.50L93.30 6.41L93.30 6.41Q94.24 5.50 95.29 5.50L95.29 5.50L95.29 6.96L95.29 6.96Q94.28 6.96 93.48 7.80L93.48 7.80L93.48 12.67ZM95.98 10.44L95.98 10.44L95.98 10.44Q95.98 8.30 99.09 8.30L99.09 8.30L99.09 8.30Q99.83 8.30 100.56 8.44L100.56 8.44L100.56 7.90L100.56 7.90Q100.56 6.93 99.17 6.93L99.17 6.93L99.17 6.93Q97.99 6.93 96.56 7.27L96.56 7.27L96.56 5.84L96.56 5.84Q97.99 5.50 99.17 5.50L99.17 5.50L99.17 5.50Q102.37 5.50 102.37 7.86L102.37 7.86L102.37 12.67L101.32 12.67L100.67 12.03L100.67 12.03Q99.74 12.67 98.61 12.67L98.61 12.67L98.61 12.67Q95.98 12.67 95.98 10.44ZM100.56 9.67L100.56 9.67Q99.87 9.53 99.09 9.53L99.09 9.53L99.09 9.53Q97.79 9.53 97.79 10.42L97.79 10.42L97.79 10.42Q97.79 11.38 98.88 11.38L98.88 11.38L98.88 11.38Q99.78 11.38 100.56 10.81L100.56 10.81L100.56 9.67ZM105.97 12.71L103.22 5.50L105.14 5.50L106.96 10.66L108.73 5.50L110.61 5.50L107.63 12.89L107.63 12.89Q106.84 14.84 105.10 15.67L105.10 15.67L104.22 14.43L104.22 14.43Q105.42 13.90 105.97 12.71L105.97 12.71Z"></path></g><!----><g data-v-423bf9ae="" id="4df515fc-5ef9-472c-a4c7-4503e9525428" transform="matrix(2.8125,0,0,2.8125,213,0)" stroke="none" fill="white"><circle cx="16" cy="16.021" r="8.066"></circle><path d="M32 0H0v32h32V0zM16 26.086c-5.551 0-10.066-4.516-10.066-10.065 0-5.55 4.516-10.066 10.066-10.066 5.55 0 10.065 4.516 10.065 10.066.001 5.55-4.515 10.065-10.065 10.065z"></path></g><!----></svg>