<svg xmlns="http://www.w3.org/2000/svg" xmlns:xlink="http://www.w3.org/1999/xlink" width="500" zoomAndPan="magnify" viewBox="0 0 375 374.999991" height="500" preserveAspectRatio="xMidYMid meet" version="1.0"><path fill="#040606" d="M 251.253906 220.492188 C 251.253906 249.355469 232.277344 267.367188 203.8125 271.929688 L 203.8125 294.5 L 165.992188 294.5 L 165.992188 270.628906 C 143.453125 266.902344 125.210938 252.71875 125.210938 252.71875 L 146.285156 224.851562 C 146.285156 224.851562 165.695312 240.132812 189.664062 240.132812 C 204.945312 240.132812 214.167969 234.042969 214.167969 224.085938 L 214.167969 223.621094 C 214.167969 214.167969 208.339844 209.339844 179.976562 202.046875 C 145.785156 193.324219 123.746094 183.90625 123.746094 150.179688 L 123.746094 149.714844 C 123.746094 124.277344 140.625 106 165.992188 100.375 L 165.992188 80.5 L 203.8125 80.464844 L 203.8125 100.707031 C 223.722656 102.671875 236.9375 113.59375 236.9375 113.59375 L 218.261719 142.921875 C 218.261719 142.921875 203.445312 131.503906 182.640625 131.503906 C 168.355469 131.503906 160.832031 138.0625 160.832031 146.285156 L 160.832031 146.785156 C 160.832031 157.9375 168.125 161.566406 197.421875 169.089844 C 231.84375 178.078125 251.253906 190.394531 251.253906 219.992188 Z M 187.464844 0 C 83.894531 0 0 83.960938 0 187.464844 C 0 291.039062 83.929688 375 187.464844 375 C 291.039062 375 375 291.039062 375 187.464844 C 375 83.960938 291.039062 0 187.464844 0 " fill-opacity="1" fill-rule="nonzero"/></svg>