<svg xmlns="http://www.w3.org/2000/svg" xmlns:xlink="http://www.w3.org/1999/xlink" width="500" zoomAndPan="magnify" viewBox="0 0 375 374.999991" height="500" preserveAspectRatio="xMidYMid meet" version="1.0"><path fill="#000000" d="M 154.542969 121.582031 C 154.542969 91.292969 129.898438 66.652344 99.609375 66.652344 C 69.320312 66.652344 44.679688 91.292969 44.679688 121.582031 C 44.679688 151.871094 69.320312 177.246094 99.609375 177.246094 C 129.898438 177.246094 154.542969 151.871094 154.542969 121.582031 Z M 154.542969 121.582031 " fill-opacity="1" fill-rule="nonzero"/><path fill="#000000" d="M 198.488281 287.109375 L 187.5 287.109375 C 181.429688 287.109375 176.515625 292.027344 176.515625 298.097656 L 176.515625 320.070312 C 176.515625 326.136719 181.429688 331.054688 187.5 331.054688 L 198.488281 331.054688 C 210.621094 331.054688 220.460938 321.214844 220.460938 309.082031 C 220.460938 296.949219 210.621094 287.109375 198.488281 287.109375 Z M 198.488281 287.109375 " fill-opacity="1" fill-rule="nonzero"/><path fill="#000000" d="M 62.476562 375 L 69.730469 353.027344 L 55.664062 353.027344 C 43.800781 353.027344 32.59375 350.390625 22.707031 345.335938 L 22.707031 364.015625 C 22.707031 370.167969 27.539062 375 33.691406 375 Z M 62.476562 375 " fill-opacity="1" fill-rule="nonzero"/><path fill="#000000" d="M 55.664062 331.046875 L 77.199219 331.046875 C 76.296875 333.761719 90.933594 289.425781 91.699219 287.109375 L 55.664062 287.109375 C 49.511719 287.109375 44.679688 282.277344 44.679688 276.125 L 44.679688 232.179688 C 44.679688 226.023438 49.511719 221.191406 55.664062 221.191406 C 61.816406 221.191406 66.652344 226.023438 66.652344 232.179688 L 66.652344 265.128906 L 98.949219 265.128906 C 98.171875 267.441406 110.476562 230.972656 111.253906 228.660156 C 112.574219 224.265625 116.75 221.191406 121.582031 221.191406 L 197.386719 221.191406 C 192.332031 196.144531 170.144531 177.246094 143.554688 177.246094 L 55.664062 177.246094 C 25.25 177.246094 0 201.898438 0 232.179688 L 0 276.125 C 0 307.542969 26.972656 331.046875 55.664062 331.046875 Z M 55.664062 331.046875 " fill-opacity="1" fill-rule="nonzero"/><path fill="#000000" d="M 202.144531 243.164062 L 129.5 243.164062 L 85.550781 375 L 165.527344 375 C 170.253906 375 174.449219 371.976562 175.945312 367.492188 L 180.988281 352.367188 C 165.925781 349.335938 154.542969 336.015625 154.542969 320.070312 L 154.542969 298.097656 C 154.542969 279.921875 169.328125 265.136719 187.5 265.136719 L 198.488281 265.136719 C 202.324219 265.136719 205.984375 265.789062 209.539062 266.714844 L 212.566406 257.621094 C 214.9375 250.511719 209.644531 243.164062 202.144531 243.164062 Z M 202.144531 243.164062 " fill-opacity="1" fill-rule="nonzero"/><path fill="#000000" d="M 342.042969 0 L 209.472656 0 C 191.300781 0 176.515625 14.785156 176.515625 32.960938 L 176.515625 121.582031 C 176.515625 139.753906 191.300781 155.273438 209.472656 155.273438 L 220.460938 155.273438 L 220.460938 188.234375 C 220.460938 192.671875 223.128906 196.6875 227.242188 198.382812 C 231.292969 200.074219 236.046875 199.164062 239.210938 196 L 279.941406 155.273438 L 342.042969 155.273438 C 360.214844 155.273438 375 139.753906 375 121.582031 L 375 32.960938 C 375 14.785156 360.214844 0 342.042969 0 Z M 305.128906 74.417969 L 272.171875 107.375 C 270.027344 109.523438 267.214844 110.597656 264.40625 110.597656 C 261.59375 110.597656 258.78125 109.523438 256.636719 107.375 L 240.15625 90.898438 C 235.867188 86.605469 235.867188 79.65625 240.15625 75.363281 C 244.449219 71.070312 251.398438 71.070312 255.691406 75.363281 L 264.40625 84.070312 L 289.597656 58.882812 C 293.886719 54.59375 300.839844 54.59375 305.128906 58.882812 C 309.421875 63.175781 309.421875 70.125 305.128906 74.417969 Z M 305.128906 74.417969 " fill-opacity="1" fill-rule="nonzero"/></svg>