<svg xmlns="http://www.w3.org/2000/svg" xmlns:xlink="http://www.w3.org/1999/xlink" width="500" zoomAndPan="magnify" viewBox="0 0 375 374.999991" height="500" preserveAspectRatio="xMidYMid meet" version="1.0"><defs><clipPath id="3acb6f28bc"><path d="M 8.4375 182 L 139 182 L 139 209 L 8.4375 209 Z M 8.4375 182 " clip-rule="nonzero"/></clipPath></defs><path fill="#000000" d="M 105.046875 92.144531 C 129.789062 72.15625 161.269531 60.175781 195.542969 60.175781 C 275.039062 60.175781 339.589844 124.65625 339.589844 204.070312 C 339.589844 283.484375 275.039062 347.964844 195.542969 347.964844 C 152.925781 347.964844 114.597656 329.425781 88.21875 300 C 83.398438 294.609375 75.105469 294.15625 69.726562 298.972656 C 64.332031 303.785156 63.878906 312.070312 68.695312 317.441406 C 99.878906 352.238281 145.171875 374.128906 195.542969 374.128906 C 289.496094 374.128906 365.78125 297.925781 365.78125 204.070312 C 365.78125 110.214844 289.496094 34.011719 195.542969 34.011719 C 155.035156 34.011719 117.8125 48.175781 88.582031 71.808594 C 82.960938 76.34375 82.089844 84.59375 86.628906 90.210938 C 91.183594 95.824219 99.425781 96.679688 105.046875 92.144531 Z M 105.046875 92.144531 " fill-opacity="1" fill-rule="evenodd"/><path fill="#000000" d="M 191.179688 47.09375 L 191.179688 12.210938 C 191.179688 4.988281 185.3125 -0.871094 178.085938 -0.871094 C 170.855469 -0.871094 164.988281 4.988281 164.988281 12.210938 L 164.988281 47.09375 C 164.988281 54.3125 170.855469 60.175781 178.085938 60.175781 C 185.3125 60.175781 191.179688 54.3125 191.179688 47.09375 Z M 191.179688 47.09375 " fill-opacity="1" fill-rule="evenodd"/><path fill="#000000" d="M 226.101562 47.09375 L 226.101562 12.210938 C 226.101562 4.988281 220.234375 -0.871094 213.003906 -0.871094 C 205.777344 -0.871094 199.910156 4.988281 199.910156 12.210938 L 199.910156 47.09375 C 199.910156 54.3125 205.777344 60.175781 213.003906 60.175781 C 220.234375 60.175781 226.101562 54.3125 226.101562 47.09375 Z M 226.101562 47.09375 " fill-opacity="1" fill-rule="evenodd"/><path fill="#000000" d="M 309.558594 91.222656 L 334.265625 66.558594 C 339.363281 61.449219 339.363281 53.164062 334.265625 48.050781 C 329.148438 42.960938 320.855469 42.960938 315.738281 48.050781 L 291.050781 72.734375 C 285.9375 77.824219 285.9375 86.128906 291.050781 91.222656 C 296.148438 96.332031 304.460938 96.332031 309.558594 91.222656 Z M 309.558594 91.222656 " fill-opacity="1" fill-rule="evenodd"/><path fill="#000000" d="M 353.210938 64.011719 L 318.289062 29.128906 C 313.191406 24.015625 304.878906 24.015625 299.78125 29.128906 C 294.664062 34.222656 294.664062 42.523438 299.78125 47.617188 L 334.703125 82.5 C 339.800781 87.609375 348.109375 87.609375 353.210938 82.5 C 358.324219 77.40625 358.324219 69.105469 353.210938 64.011719 Z M 353.210938 64.011719 " fill-opacity="1" fill-rule="evenodd"/><path fill="#000000" d="M 160.625 25.289062 L 230.464844 25.289062 C 237.691406 25.289062 243.558594 19.429688 243.558594 12.210938 C 243.558594 4.988281 237.691406 -0.871094 230.464844 -0.871094 L 160.625 -0.871094 C 153.394531 -0.871094 147.527344 4.988281 147.527344 12.210938 C 147.527344 19.429688 153.394531 25.289062 160.625 25.289062 Z M 160.625 25.289062 " fill-opacity="1" fill-rule="evenodd"/><path fill="#000000" d="M 182.449219 108.140625 L 182.449219 195.347656 C 182.449219 198.820312 183.828125 202.152344 186.289062 204.59375 L 238.671875 256.917969 C 243.769531 262.027344 252.082031 262.027344 257.179688 256.917969 C 262.292969 251.824219 262.292969 243.523438 257.179688 238.429688 L 208.640625 189.925781 C 208.640625 189.925781 208.640625 108.140625 208.640625 108.140625 C 208.640625 100.917969 202.773438 95.058594 195.542969 95.058594 C 188.316406 95.058594 182.449219 100.917969 182.449219 108.140625 Z M 182.449219 108.140625 " fill-opacity="1" fill-rule="evenodd"/><g clip-path="url(#3acb6f28bc)"><path fill="#000000" d="M 20.941406 208.429688 L 125.703125 208.429688 C 132.933594 208.429688 138.800781 202.570312 138.800781 195.347656 C 138.800781 188.128906 132.933594 182.265625 125.703125 182.265625 L 20.941406 182.265625 C 13.714844 182.265625 7.847656 188.128906 7.847656 195.347656 C 7.847656 202.570312 13.714844 208.429688 20.941406 208.429688 Z M 20.941406 208.429688 " fill-opacity="1" fill-rule="evenodd"/></g><path fill="#000000" d="M 73.324219 147.382812 L 125.703125 147.382812 C 132.933594 147.382812 138.800781 141.523438 138.800781 134.300781 C 138.800781 127.082031 132.933594 121.222656 125.703125 121.222656 L 73.324219 121.222656 C 66.09375 121.222656 60.230469 127.082031 60.230469 134.300781 C 60.230469 141.523438 66.09375 147.382812 73.324219 147.382812 Z M 73.324219 147.382812 " fill-opacity="1" fill-rule="evenodd"/><path fill="#000000" d="M 73.324219 269.476562 L 125.703125 269.476562 C 132.933594 269.476562 138.800781 263.617188 138.800781 256.394531 C 138.800781 249.175781 132.933594 243.3125 125.703125 243.3125 L 73.324219 243.3125 C 66.09375 243.3125 60.230469 249.175781 60.230469 256.394531 C 60.230469 263.617188 66.09375 269.476562 73.324219 269.476562 Z M 73.324219 269.476562 " fill-opacity="1" fill-rule="evenodd"/></svg>